<?xml version="1.0" encoding="UTF-8"?><svg id="Layer_1" xmlns="http://www.w3.org/2000/svg" viewBox="0 0 72 72"><path d="M15.753,8.386c.066.483.45,1.194.528,1.717,1.257-.366,2.584-.651,3.851-.15.155-.125.344-1.576.399-1.897.289-1.698.401-3.733.793-5.361.089-.371.124-.442.476-.307l-1.238,7.784c-.095.943.165,1.863.095,2.807-.018.244-.202.447-.189.605.028.364.97,1.391.974,1.941l.253,1.988c-.081-2.561.107-5.102.572-7.616.322-1.742.697-3.141.903-4.938.098-.851.142-.71.084-1.574-.02-.292-.031-.774.164-.999.102-.117.35-.009.361.005.05.064-.32,1.331.186,1.56,2.665.399,5.348.728,8.051.628v-2.19h.208v2.138c.465.309,1.053-.02,1.564.052v-2.19h.208v2.19l7.317-.631c.448-.393.315-1.047.188-1.559l.474.098c.338.505-.14,1.266-.112,1.58.162,1.875.832,3.934,1.168,5.812.445,2.485.632,5.001.555,7.529l.412-2.35c.027-.419.792-1.19.817-1.473.014-.15-.173-.363-.191-.607-.065-.881.14-1.733.106-2.609-.038-.951-1.416-7.542-1.203-7.879.088-.139.235-.106.37-.103l1.148,7.511c1.329-.306,2.612-.285,3.901.202.084-.018.581-1.495.581-1.611V2.388h.416c-.121,1.873.162,3.943.004,5.793-.061.716-.406,1.339-.516,1.987-.171,1.002-.025,2.333-.238,3.307-.077.35-.377.315-.405.541-.049,1.28.524,3.15.297,4.359-.061.323-1.182,2.826-1.389,3.096-.274.357-1.008.66-1.435.859-.319.148-1.694.745-1.935.768-.534.05-.614-.615-.506-1.022.011-.04.356-.706.383-.737.117-.136.374-.369.576-.597.216-.244.814-.56.87-.694.111-.268.426-1.899.311-2.095-.033-.057-.289-.111-.342-.23-.442.983-.349,3.247-1.985,2.841l-.152.235c-.225,5.331-.651,10.647-.835,15.958-.126,3.634-.103,7.314-.212,10.949-.075,2.492-.178,4.968-.307,7.462.123.166,3.052-2.079,3.516-2.169.181-.035.293-.024.469.001,1.039.147,2.578.823,3.704,1.095.377.091,1.322.374,1.64.346.208-.018.288-.306.495-.446.24-.162.772-.237.944-.385.112-.097.061-.289.234-.416.09-.066,1.967-.848,2.079-.84.06.004.24.219.106.313l-1.918.845c-.223.357,1.971,5.07,2.177,5.828l1.092-.314c.345.408-1.123.809-1.282.714-.062-.037-.099-.347-.277-.367l-1.256.457-.605-.686c-1.129.793-2.164,1.056-3.549.915-.571-.058-1.976-.61-2.386-.492-.15.043-.269.245-.386.348.563.302.621,1.385-.058,1.511-.305.056-.7-.114-.821-.085-.192.046-.254.613-.737.617-.439.004-.771-.483-1.15-.641-.194,0-.523.756-1.063.556-.789-.292-.374-1.485-1.071-1.696-.193.523.109,1.001-.582,1.142-.085.075-.019.14,0,.218.11.459,1.101,2.077,1.414,2.554.604.921,2.145,2.291,2.354,3.173.103.435.252,1.444,0,1.787-.578.787-3.341.63-4.252.486-1.48-.235-3.391-.794-2.999-2.684-.729.152-2.104-.299-2.19-1.093s-.123-2.538.049-3.291c.052-.226.386-.964.357-1.082-.036-.143-.329-.165-.389-.339-.038-.111-.106-1.378-.119-1.654-.52-10.384-.61-20.745-1.994-31.07l-1.028-7.783c-.472,3.239-.897,6.497-1.251,9.753-1.078,9.906-1.228,19.507-1.774,29.413-.012.22-.088,1.251-.119,1.341-.061.175-.358.204-.378.325.19.57.465,1.286.498,1.885.018.338-.1.617-.093.843.02.688.37,1.631-.225,2.173-.521.473-1.285.743-1.974.58.051.991.061,1.43-.802,1.961-1.347.829-4.047,1.055-5.561.704-.567-.132-1.043-.301-1.046-.944-.012-2.289,1.33-2.701,2.449-4.338.593-.868,1.026-1.836,1.523-2.759-.002-.25-.34-.24-.402-.43-.048-.147-.112-.813-.126-1.022-.464-7.016-.441-14.058-.625-21.07-.161-6.137-.709-12.276-.935-18.414-.79.302-1.253-.072-1.565-.78-.2-.452-.308-1.598-.468-1.827-.073-.105-.16-.167-.261-.056-.391.191.016,2.022.163,2.241.106.157.53.259.729.419.504.406,1.72,2.175.748,2.533-.223.082-1.859-.614-2.196-.773-.94-.444-1.241-.555-1.72-1.513-.495-.989-1.097-2.34-1.056-3.426.038-1.027.286-2.184.317-3.234-.799-.98-.42-2.701-.64-3.956-.114-.65-.455-1.271-.517-1.986-.158-1.85.125-3.92.004-5.793h.416v5.998ZM26.699,4.683l-3.023-.417-.21,1.773,3.128.418.104-1.774ZM38.998,4.683v1.773c.32-.016,2.807-.332,2.819-.477l-.312-1.669-2.506.373ZM27.427,4.683c-.307-.002-.38-.091-.471.202-.047.152-.226,1.919-.155,1.989h.522s.103-2.191.103-2.191ZM38.789,4.683h-1.928c-.023,0-.363.127-.373.164.121,1.523,2.568,1.512,2.301-.164ZM29.408,4.892l-1.674-.059-.198,1.724,1.768.212c-.087-.391-.252-.661-.213-1.095.034-.376.26-.462.317-.782ZM35.976,4.891c-.511-.091-1.033.094-1.508.109-.801.025-4.302-.143-4.702.093-.661.391-.505,1.671.528,1.78,1.835.193,3.941-.137,5.785-.103l-.104-1.879ZM38.788,5.83c-.422.305-1.177.423-1.672.266-.195-.062-.289-.298-.515-.266-.011.278-.07.388.209.469l-.211.26.315.053-.313.155.313.053-.314.26.522.053-.419.053.011.407.303.062-.315.053v.208s.313.104.313.104l-.418.002v.311s.418.104.418.104l-.416.104.416.104c-.476-.075-.666.173-.103.262l-.313.155.416.209-.416.002.313.155-.313.155.312.104-.208.104.313.053-.315.053.208.311-.21.069-.102.871h1.146s-.611-.223-.611-.223l-.013-.507.572.519.103-.52c.189.212.186.49.053.73h.938s-.416-.311-.416-.311l.52-.002-.417-.155.418-.26-.522-.053.417-.053-.416-.104c.142-.28.516-.028.416-.52l-.522-.053.522-.053-.417-.26.368.05.051-.206-.419-.053.417-.053-.313-.155.315-.053v-.208s-.315-.053-.315-.053l.314-.26-.418-.053.419-.053v-.312s-.523-.053-.523-.053l.522-.053-.417-.26.417-.053v-.102l-.417-.053.417-.26-.522-.053.522-.053-.417-.155.418-.053-.418-.26.417-.053-.209-.155c.28-.082.223-.189.209-.469ZM23.989,6.457c-.331-.083-.372-.207-.53.147-.516,1.15-.623,2.984-.928,4.232l1.459-4.38ZM41.811,6.352l-.622.261,1.56,4.224c-.169-1.521-.588-3.002-.938-4.485ZM26.625,7.048c-.047-.032-.066-.184-.134-.224-.084-.05-1.724-.271-1.931-.273-.151-.001-.313-.019-.418.112-.776,2.523-1.881,5.212-2.035,7.872-.338,5.813.529,12.404.837,18.259.321,6.103.149,12.168.414,18.257.091,2.102.186,4.25.318,6.357.03.479.172.988.117,1.5l1.758.431c-.016-.468.022-.943.005-1.412-.404-10.914-.2-21.928.104-32.849.084-3.002.063-6.304.543-9.262.015-.094.045-.313.181-.286-.808,7.298-.607,14.625-.724,21.961-.076,4.761-.18,9.5-.113,14.29.031,2.169-.12,5.257.103,7.302.016.144.002.283.17.348.713-.124,1.434-.111,2.151-.227.249-.04,1.153-.166,1.215-.348l.539-10.934c.056-6.628.711-13.236,1.468-19.81.492-4.275,1.542-8.56.921-12.839l-.041-7.991c-.134-.192-1.718-.073-2.09-.099-.573-.04-1.814-.367-2.304-.283-.11.019-.101.255-.22.287-.22.06-.641-.009-.834-.141ZM41.072,6.573l-2.074.196c.015.782-.016,1.569-.004,2.352.018,1.115.003,2.203,0,3.329-.013,4.034.511,8.119.631,12.207.269,9.143.29,18.285.202,27.429-.022,2.242-.018,4.496.058,6.734.195.014.242-.18.311-.315.24-.472,1.461-2.799,1.507-3.082.268-1.657.136-4.088.21-5.84.234-5.566.133-11.105.422-16.684.309-5.954,1.214-12.666.837-18.572-.165-2.586-1.318-5.307-2.1-7.754ZM36.274,7.201c-.657-.281-1.363.106-2.071-.015.046,2.217.253,4.626.11,6.838-.084,1.296-.441,2.352-1.871,2.56.02,1.188.411,2.332.598,3.502,1.964,12.28,2.458,24.714,3.044,37.112.027.572-.029,1.154-.004,1.726h.416s-.222-51.723-.222-51.723ZM34.099,7.186h-1.772l.105,9.283c.697-.122,1.667-.986,1.667-1.721v-7.562ZM20.235,13.027c-.092-.454-.028-2.716-.207-2.869-.546-.468-3.069-.208-3.705.26l.16,2.922c1.205-.4,2.499-.561,3.751-.313ZM45.044,10.889c-.075.67.055,1.454,0,2.138,1.292-.213,2.522-.127,3.752.313l.161-2.926c-1.149-.498-2.497-.694-3.706-.258-.059.052-.194.619-.207.732ZM38.79,11.255h-2.086s.011.407.011.407l.302.113-.414.262.414.157-.416.104.209.259-.21.105.313.053-.312.26.312.053-.207.311.626.053-.73.053.312.209-.209.156.21.208-.209.053v.208s.207.103.207.103c-.312-.099-.262.7.002.679l-.314.26,1.356.053c0,.168-1.094-.119-1.251.21l.209.207-.19.072-.021.5.315.054-.315.053.002.208.209.052-.209.155.313.053-.315.053.211.26-.209.155.417.053-.4.172v.382s.192.072.192.072l-.21.26.418.053-.419.053v.351s.211.118.211.118l-.21.155.21.053-.209.26c.263-.07.56.092.784.087.213-.005.388-.171.571-.138-.137.458-1.019.268-1.355.155.004.29-.112.494.209.574-.226.093-.241.083-.211.365l.419.053-.419.053c-.031.282-.015.272.211.365l-.209.155.313.053c-.289.126-.255.192-.314.468l.627.053-.627.053v.312s.314.052.314.052l-.315.053.002.41.313.058-.31.056-.004,1.039.731.053-.73.21.312.362-.312.104.313.053-.315.053c-.09.353.265.122.314.261.096.27-.238-.003-.312.209-.085.243.208.099.209.207l-.209.155.31.158-.312.209.314.053c-.137.245-.409.145-.314.52l.315.052-.313.053c-.028.209.265-.019.209.259-.022.111-.305-.04-.21.261l.418.053-.419.053.021.501.19.072-.209.26h.729s-.313-.209-.313-.209l.106-.52.104.314.73-.157c-.133.541.216.976-.58.895-.121-.012-.363-.408-.777-.218v.312s.314.052.314.052l-.315.053v.208s.315.053.315.053l-.314.053c.07.265-.087.51.21.573l-.211.26.315.053-.313.053.208.104-.209.311.731.053-.73.053.313.26-.315.053.211.26-.209.155.313.053-.315.053v.208s.315.053.315.053l-.315.054v.519s.315.054.315.054l-.314.26.418.053-.418.053.314.26-.313.209.313.104c0,.038-.797.116,0,.313l-.312.059c.087.223-.063.28.208.358l-.21.208.314.105-.313.104.208.26-.208.104.521.002-.521.209.211.365-.21.053.208.31c-.216-.019-.238-.013-.209.209l.418.053-.418.053.21.26-.211.26.315.053-.315.052v.312c.317.124,1.447-.256,1.461.156.004.109-.563.179-.683.169-.113-.009-.372-.414-.777-.22l.209.26-.211.26.315.053-.313.155.313.053-.315.053v.208l.315.053-.313.053.313.155-.314.26.312.104-.312.104.313.053-.314.26.625.002c.107.402-.498.118-.625.209l.194.471-.193.101.313.209-.313.053.313.155-.315.053v.208l.315.053-.313.053.313.155-.313.155.312.104-.209.053.315.104-.418.053.418.26-.418.053c-.03.222-.007.228.209.209l-.209.311.418.053-.417.209.313.104-.312.209.207.209-.208.103.522.209-.522.053.312.209-.21.168v.3s.316.104.316.104l-.418.053c-.094.276.16.167.186.258.039.139.002.423-.186.419l.418.209-.419.053c-.063.329.101.326.314.469l-.313.053.313.155-.314.26.418.053-.418.26.417.209-.416.104.311.104-.204.066-.003.456.521-.05-.626.156.314.26-.314.053.314.26-.315.053.315.364-.313.053.313.155-.312.209.416.209c-.002.088-.349-.032-.42.315l.187.065-.074.288.203.062-.314.26.417.002c-.106.243-.381.116-.313.468l.417.054-.52.26.312.053c.021.198-.217-.004-.208.26.009.265.121.137.312.158l-.313.104.211.26-.209.26.522.053-.625.21.415.156-.416.26.416.053-.313.104v.312s.315.052.315.052l-.315.052v.311s.523.158.523.158c-.002.089-.976.144-.313.417l-.209.155.312.104c-.422-.087-.455.253-.102.366l-.211.104.211.104-.314.053.416.209-.416.104.416.104-.302.113-.011.407.419.053-.418.053.314.26-.315.053.211.26-.209.053v.208s.209.052.209.052l-.209.053.209.155-.209.155.209.053-.209.052-.002.208.315.053-.315.053.211.26-.212.117.009.345.307.059-.313.053.313.155-.315.104.315.053v.208l-.315.053.313.053-.313.104v.208l.313.104-.311.104.521.158-.522.053c-.106.404.391.05.416.311l-.521.313c.774-.23,1.53-.351,2.293,0l-.52-.313.417-.104v-.312s-.522-.002-.522-.002l.52-.104-.312-.311.416-.002-.312-.104.207-.311-.626-.053.73-.053-.624-.104v-.102s.624-.002.624-.002l-.416-.104.314-.26-.417-.053.521-.104v-.416l-.521-.002.417-.155-.417-.053c-.019-.232.372-.004.417-.156.092-.317-.438-.014-.417-.259l.416-.104-.522-.053.522-.053c-.101-.178-.458-.174,0-.209l-.209-.155.209-.155-.208-.104.312-.104c-.226-.087-.706.312-.624-.105l.624-.002-.417-.155.419-.104-.626-.053.508-.116.095-.356-.605-.205.626-.053-.209-.155.209-.155h-.313s.052-.19.052-.19l.158-.07-.417-.054.416-.207-.417-.053.418-.053-.314-.26.315-.053v-.208s-.313-.104-.313-.104l.416-.104-.416-.104.416-.209-.471-.107-.05-.206.52-.002-.417-.155.418-.26-.731-.053.626-.053-.313-.155.315-.053v-.208s-.315-.053-.315-.053l.314-.26-.417-.104.521-.002-.314-.26.313-.155-.52-.002v-.102s.52-.104.52-.104l-.626-.053.522-.053-.313-.26.313-.155-.417-.053.417-.053-.312-.311.312-.104-.417-.158.417-.053-.417-.155.417-.155-.73-.158.73-.053-.313-.104.051-.207.263-.105-.417-.104.417-.053-.313-.155c.381.07.273-.111.415-.367l-.519-.052.52-.104-.52-.104.52-.26-.52-.053.417-.155-.417-.053v-.102l.417-.053-.417-.155.52-.002-.312-.104.209-.155-.417-.053.416-.104-.312-.104.313-.311-.419-.053.419-.053-.314-.157.313-.259-.417-.053.417-.053v-.102s-.417-.053-.417-.053l.417-.26-.626-.053.731-.053v-.414s-.627-.159-.627-.159l.522-.053-.209-.26.211-.104-.315-.104.313-.155-.417-.053.417-.053c.005-.222-.209.041-.208-.259,0-.112.311.206.21-.157l-.419-.053.417-.155-.522-.053c.545-.028.733-.443.106-.262l.416-.311-.522-.053.522-.053-.313-.26.313-.155-.417-.053.418-.053-.314-.26.313-.155-.417-.053.417-.053-.313-.155.315-.053v-.208l-.315-.053.313-.155-.417-.053.417-.053v-.102s-.417-.053-.417-.053l.418-.053-.314-.26.313-.053-.312-.104.312-.311-.417-.053.417-.209-.417-.104.419-.053-.051-.206-.367.049.417-.259-.417-.053.419-.053v-.416s-.419-.053-.419-.053l.418-.053-.21-.26.209-.155-.417-.053.417-.26-.626-.053.626-.053-.52-.104.52-.104-.313-.26.313-.26-.522-.053.522-.053-.417-.155.418-.053-.314-.26.313-.155-.417-.053.418-.26-.418-.053.419-.104-.417-.053.416-.311-.416-.104.416-.053-.522-.209.522-.053-.313-.155.315-.053v-.208l-.315-.053.313-.053-.313-.155.313-.155-.522-.053.521-.158-.311-.104.312-.104-.314-.26.313-.155-.77-.008c-.101.567-.552.472-.898.112.736.248.616-.156,1.176-.441.155-.079.323-.084.491-.082l-.417-.155.417-.26-.522-.053.522-.053-.417-.26.417-.053v-.102l-.417-.053.418-.26-.418-.053.418-.053-.209-.311.208-.104-.522-.053.522-.053-.417-.155.417-.262-.417-.155.419-.053v-.416s-.419-.053-.419-.053l.417-.26-.417-.053.418-.053-.314-.26.313-.155-.626-.053.626-.158-.313-.155.313-.104c-.053-.242-.51.088-.417-.208.048-.153.436.076.417-.156l-.522-.053.522-.26-.522-.053.522-.26-.417-.104.416-.104-.522-.053.522-.053-.417-.155.418-.053-.418-.26.417-.053v-.102s-.417-.053-.417-.053l.417-.155-.522-.053.522-.053-.417-.155.417-.053-.313-.155.313-.155-.417-.053.418-.053-.21-.26.209-.155-.417-.053.417-.053-.313-.155.314-.26-.418-.053.417-.155-.73-.053.73-.209-.417-.104.417-.155-.417-.053.418-.26-.522-.053.522-.053-.418-.26.417-.155-.522-.053.522-.209-.416-.053.314-.104v-.415s-.419-.053-.419-.053l.418-.053-.312-.311.417-.053-.417-.053.416-.26-.313-.104.314-.26-.314-.053.211-.104-.417-.053.417-.155-.417-.155h.418s-.002-.413-.002-.413l-.313-.058.313-.155-.416-.104.52-.104-.416-.158.312-.155-.417-.053.522-.053-.522-.26.522-.053-.208-.26c.262-.082.121-.147.21-.364l-.42-.053.417-.155-.522-.053.522-.26-.521-.104.521-.054-.521-.259.52-.104-.52-.002.416-.206-.417-.053.419-.053v-.312l-.419-.053.417-.053v-.102s-.417-.053-.417-.053l.418-.053-.314-.26.313-.155-.522-.053.522-.053-.313-.26.313-.053-.313-.155.313-.155-.522-.053.523-.053c-.094-.223.065-.286-.211-.364.225-.093.242-.082.211-.365l-.419-.053.418-.053-.21-.26.209-.155-.417-.053.418-.053-.418-.26.418-.053-.21-.26.209-.155-.417-.053.418-.053-.314-.26.304-.062.011-.407ZM21.591,19.182c-.423-1.555-.266-3.21-1.025-4.659-.101-.192-.579-.961-.701-1.072-.588-.534-2.226.041-2.961.103l-.311,4.736c.622,1.064.821,2.748,1.943,3.375.092.051.262.229.343.074-.418-.266-.625-.483-.852-.92-.196-.377-.972-2.318-1.006-2.654-.017-.169.007-.292.19-.338.034.319.141.642.263.937.725,1.75.839,2.379,2.52,3.424.327.203.67.477,1.074.437.154-.7-.586-.923-.942-1.299-.907-.96-1.084-1.642-1.133-2.924-.008-.214-.084-.405-.121-.612l.623-.452-.093-.867.57.94c.327.653.435,2.757,1.366,2.815.504.032.386-.49.238-.82-.076-.047-.349-.035-.442-.002-.185.067-.096.318-.273.299l.066-.421.663-.101ZM48.369,13.559c-.762-.104-2.129-.554-2.833-.195-.408.209-1.19,1.868-1.298,2.352-.117.524-.067,1.047-.145,1.523-.108.654-.346,1.28-.405,1.942.534-.02.826.156.731.73.725-.933.516-2.402,1.407-3.337l-.042.763c.807.572.531.275.501,1.063-.028.731-.062.785-.257,1.505-.052.192-.005.497-.069.61-.026.045-.254.114-.347.223-.145.169-.269.391-.413.528-.483.461-1.169.548-.989,1.461.852-.348,2.06-1.079,2.605-1.825.33-.452.902-1.845,1.123-2.422.082-.213.142-.423.129-.655.231.069.214.247.189.442-.031.246-.946,2.479-1.107,2.76-.205.358-.537.573-.854.814.262.069.814-.3.98-.48.26-.283,1.43-2.931,1.463-3.312l-.369-4.492ZM39.608,58.909l.228-17.462c-.279-5.778-.228-11.618-.426-17.411-.073-2.146-.033-4.297-.361-6.42l.156,33.744c-.147.411-.074.733.005,1.145l-.004,6.523.401-.119ZM43.753,19.398c-.647.212.341,1.646.546.275-.081-.213-.321-.349-.546-.275ZM45.356,56.264v-1.512h.208v1.46c.282.048.403-.543.729-.366-1.265,1.691-3.473,1.567-5.21,2.453.094.228.399-.006.631.253.416.465.228,1.294-.528,1.1l.474-.307c.14-.202.016-.617-.161-.792-.161-.134-.916.118-.943.229-.153,1.023.602,1.036,1.399.961,1.243-.117,2.312-.979,3.666-1.034.573-.023,1.03.253,1.662-.206l-.468.315c-.17.179,1.236.407,1.403.42.391.029.944.022,1.332-.031.652-.088,1.125-.49,1.746-.598l-.496.494-1.588.548c1.517.315,2.717-.065,3.969-.897l-1.374-3.993c-.352-.032-.704.017-1.057-.037-1.482-.23-3.156-1.086-4.533-1.304-.199-.031-.395-.053-.595-.021l-3.707,2.445c-.146.168-1.068,1.956-1.143,2.194-.017.053-.029.17.05.154.316-.263.75-.486,1.127-.645.786-.333,1.304-.058.489-1.126.133-.119.541.409.764.397.218-.012,1.074-.58,1.115-.873l-.106-.776c.408.459.105,1.072.904,1.237l.242-.141ZM55.05,59.027l-1.93-5.005c-.119-.173-.115-.059-.223-.019-.211.077-.848.302-.826.547l1.74,4.623.242.166.997-.312ZM25.553,60.905l-.049-1.256-1.724-.517.118,1.759c1.668.806,3.487.623,5.183,0l.118-1.758c-1.13.287-2.28.429-3.446.462l-.201,1.31ZM40.134,59.144l-.392.002-.119.507c-.252-.029-.061-.524-.415-.416l.209,2.189.207-.313c.279-.098.168.183.274.204.088.018.313-.076.455.005l.002-.521.209.416v-.415s.415.312.415.312l-.049-.315.26-.31.311.312c-.212-.495.133-.324.105-.729-.776.113-1.353-.103-1.47-.927ZM45.147,59.132l-1.031.219.094,1.45c.509-.219.985.202.943.726l.346.009c.351-.353.065-1.13-.245-1.416-.182-.168-.665-.208-.473-.466l.364.208v-.73ZM46.712,59.237c-.647-.073-1.403-.405-1.308.578.01.106.301.585.371.626.126.075.339-.103.596.015.298.137.298.645.496.552.641-.303-.462-1.383-.988-1.147l.109-.413.569.203.156-.414ZM36.184,59.237v1.512c0,.018.14.164.207.156-.059-.566.166-1.106.105-1.669h-.312ZM43.068,61.528c1.009-.004.884-1.269.724-1.978l-1.25.419.526,1.56ZM38.997,61.427c-.046-.438.185-.994-.282-1.23-.922-.464-2.349-.197-2.011,1.126l2.293.104ZM25.03,61.741l-.721-.204-1.572,3.019c.583-.04,1.094-.34,1.459-.782-.879-.088-.229-.452.298-.379l.119-.506-.519-.051c.29-.273.702-.036.831-.525.097-.367-.545.077-.623-.102l.728-.469ZM41.073,61.538l-.825.098v.312c.306-.03.544-.007.73.262l-.52-.053c-.069.723.661.292.832.783l-.624.103c.159.487.523.252.832.524l-.416.156c.303.499.888.784,1.459.833l-1.468-3.018ZM28.367,64.869c1.292-.547.833-2.172.417-3.183-.149-.151-.097.142-.205.21-.384.243-.899-.154-1.307-.167-.568-.018-1.306.236-1.929.116.114.236.673.097.624.52-.58-.13-.742-.449-.938.312l.565.096.06.322-.728-.209-.106.521c.266-.026.473.034.625.263.131.32-.587-.053-.729.052.128.623,1.136,1.273,1.724,1.257.499-.013,1.697-1.426,1.926-.111ZM39.935,61.741c-.634.061-1.412-.089-2.026.006-.277.043-.574.3-.843.296-.293-.005-.399-.311-.674-.302-.124.999-.805,2.521.461,3.023.611-1.215,1.435.215,1.985.219.46.004,1.725-.676,1.722-1.26l-.727-.053c.108-.261.792-.143.721-.409l-.264-.366-.666.201c-.02-.33.377-.408.625-.418l-.207-.476-.731.164c-.057-.475.69-.24.624-.625ZM28.143,64.571c-.247-.403-1.248.514-1.523.587-.657.173-1.974-.638-2.162-1.332-.429.547-.838.727-1.486.914-.164.047-.402-.021-.525.048-.038.021-.368.576-.49.708-.618.664-1.865,1.57-1.495,2.642.173.502,2.345.52,2.854.49.783-.047,1.99-.298,2.693-.643,1.251-.615.77-1.55,1.626-2.545.289-.335.683-.321.509-.869ZM42.829,64.791c-.162-.092-.816-.114-1.146-.261-.344-.153-.603-.442-.861-.703-.165.701-1.616,1.512-2.245,1.311-.23-.073-1.395-1.172-1.462-.423-.035.388.347.409.528.624.678.803.601,2,1.36,2.499,1.188.78,3.857.94,5.213.636.664-.149.708-.342.594-1.024-.139-.837-.949-1.37-1.487-1.953-.121-.131-.451-.682-.493-.706ZM29.199,64.765l-1.458.992.311.05.106.627c.891-.253,1.192-.734,1.041-1.669ZM37.747,66.433c-.035-.874-.936-1.24-1.562-1.668-.139.906.125,1.459,1.041,1.668l.208-.625v.626s.313-.001.313-.001ZM20.34,68.521c-.087.393.341.507.619.579,1.389.357,3.658.127,4.975-.457.394-.174.99-.452.971-.957-1.726,1.41-4.505,1.479-6.565.835ZM44.938,68.52c-2.053.576-4.839.57-6.565-.834.019.45.479.705.835.885,1.305.659,3.687.873,5.09.508.326-.085.712-.121.64-.558Z"/><path d="M38.059,43.799c.203.442-.219.631.105.938l-.833.105.521-.209v-.312c-.484.11-.964-.271-.313-.417l-.104.311.418-.048c.195-.163-.205-.435.206-.369Z"/><path d="M38.059,47.972v.625c-.258-.034-.009-.521-.304-.303-.053.039-.012.347-.529.198v-.416s.833-.105.833-.105Z"/><path d="M37.33,18.764l.052.313c.267-.378.708-.494.677.105-.217-.169-.25-.19-.521-.103l.105.207h-.521c.034-.215-.146-.6.207-.522Z"/><circle cx="30.286" cy="5.896" r=".461"/><path d="M38.15,60.398c.303.189-.111.853-.513.566-.37-.264.128-.807.513-.566Z"/><circle cx="37.643" cy="5.309" r=".334"/></svg>