<?xml version="1.0" encoding="UTF-8"?><svg id="Layer_1" xmlns="http://www.w3.org/2000/svg" viewBox="0 0 72 72"><path d="M18.047,59.818c-.564-.023-1.115-.06-1.676-.111l.336.166-.336.166.446.112-.558.002.448.166-.448.057v.109l.448.057-.448.057v.109l.448.057-.448.166.557.224-.557.111.558.111-.671.002v.446s.448,0,.448,0l-.054.221-.393-.109.022.315,1.207.241-1.341.002.56.278-.56.057.448.166-.449.056.448.223-.054.221-.393.113.558.111-.67.002v.78s.335.112.335.112l-.32.02-.077.324-.497-.007c.222-2.52.301-5.141.687-7.637.385-2.492,1.125-4.17,2.891-5.992l-1.865,1.431c-1.679.902-2.566,2.375-4.508,2.868-1.104.281-2.056.035-3.129.336-1.055.296-2.131,1.009-3.13,1.464-.212.089-.434-.139-.446-.343.088-.362,3.538-1.772,4.091-1.835.51-.059,1.044.033,1.551-.014.964-.09,2.163-.562,2.852-1.226-1.424.283-2.752.257-4.135-.226,0-.275.328.001.39.001h2.571c.427,0,2.075-.607,2.52-.833.215-.11,2.591-1.742,2.455-1.847l-.951.118-.837-.23c1.962.274,3.447-1.057,5.252-1.511,2.103-.528,4.371-.291,6.373-1.397v-.222c-1.938.781-2.083-.503-1.993-2.104l1.546-.576c-3.176-.264-5.894,1.239-9.078.748-.782-.121-1.564-.37-2.325-.581-.237-.261-.056-.153.126-.126.404.058.8.207,1.217.18l-.447-.502c.285-.145,1.299.813,1.564.614-.073-.238-1.076-3.121-.838-3.128l1.228,3.02c.134.162,1.017.169,1.18.059.066-.045.451-.975.442-1.114-.03-.46-.79-1.536-.669-2.187.428.396.445.987.835,1.455.685.821,1.875.726,2.855.614l.668-1.621c.006.543-.542,1.751.113,2.068.299.145,1.739-.171,2.185-.174.426-.003.923.219,1.392.115-.731-.877-1.346-1.899-2.127-2.733-.737-.787-.826-.799-1.877-1.029-2.156-.471-4.396-.679-6.555-1.159-.538-.07-.955.13-1.395.404-1.655,1.543-3.293,3.131-5.036,4.575-1.77,1.467-3.736,3.157-6.076,3.525-.081-.009-.162-.265-.159-.29.023-.196,1.832-.827,2.195-1.016,3.135-1.638,5.633-4.758,8.345-6.966.568-.462,1.215-.872,1.978-.866,1.133.009,3.071.636,4.311.83.674.106,1.36.16,2.036.255-2.844-3.921-6.06-7.412-7.408-12.203-1.829-6.5-.233-15.659,7.023-17.954,2.716-6.449,11.55-7.806,17.767-7.268,3.15.273,6.964,1.525,9.88,1.608.824.024,1.748-.274,2.53-.278,3.265-.014,7.049.831,8.721,3.918,1.668,3.08.819,6.937-2.286,8.671.522,1.081,1.001,2.164,1.363,3.311.757,2.394,1.228,4.902,1.969,7.305.473,1.613-1.208,2.758-.985,4.225.107.707,1.61,2.991,2.07,3.74.629,1.024,2.712,3.776,2.903,4.695.266,1.277-.687,2.344-1.82,2.775-.373.142-1.685.323-1.829.546-.526,1.781,1.348,3.035-.63,4.45.664,1.106.379,2.105-.236,3.149-1.263,2.142-3.093,2.05-5.294,1.678-1.453-.246-3.083-1.024-4.459-.113-.578,2.232-1.321,4.398-2.561,6.352l1.785,1.899c.152,1.919-.249,3.91-.113,5.811.041.571.622,1.523-.322,1.383l-2.016-6.643-.286-.385c-6.049-3.451-12.133-6.926-18.386-10.002-.293-.144-1.822-.918-1.978-.927-.178-.01-.466.31-.703.374-.724.196-1.397-.032-2.015-.394.034.968-.827,1.609-1.127,2.283-.078.175-.64,2.146-.642,2.264-.002.086.011.148.079.206,7.217,4.124,14.104,8.792,20.695,13.846l.332.058,2.806-7.085.549-.177-3.126,8.107-.403-.054c-6.784-5.148-13.8-10.007-21.235-14.184l-4.244,4.791-.513,5.24-.998-.27.56-.057-.448-.166.449-.056v-.446s-.561-.056-.561-.056l.56-.057v-.109s-.558-.112-.558-.112l.67-.002-.56-.166.56-.057-.558-.333.558.11-.448-.279.448-.056-.337-.279.337-.056v-.334s-.56-.223-.56-.223l.671.11-.56-.278.56-.057-.448-.166.448-.057-.224-.166.224-.279-.558-.111.67-.002-.56-.278.56-.057-.447-.333.448-.112-.449-.056.449-.279-1.276-.108-.065-.115c.338.014.676.048,1.009.063.184.008.293.109.443-.119l-.558-.056c-.006-.279.656.081.559-.277-.047-.172-.56.093-.559-.168l.56-.057-.56-.057c-.001-.261.512.005.559-.168.097-.358-.565.002-.559-.277l.67-.002v-.109l-.67-.112.67-.002-.336-.166.336-.279-.558-.111.558-.002-.222-.221.334-.224-.558-.112.558-.112-3.017-.223.446.333-.558.112.558.112-.558.002.446.333-.446.112.558.111-.669.112.669.224-.669-.11.447.279-.448.057.446.221-.558.002v.109s.558.002.558.002v.109l-.558.002v.109s.558.112.558.112l-.558.224,1.608.11.068.114ZM40.237,35.686h2.627c-.125-1.603-.183-3.113.164-4.696.53-2.422,2.395-4.088,4.067-5.766-.726-1.651-1.087-3.38-1.213-5.179-2.536,2.962-7.612,4.738-11.458,4.581-.136-.006-.416.084-.39-.111,1.652-.053,3.336-.382,4.918-.839,2.128-.615,6.184-2.307,6.966-4.545.192-.549.221-1.3.411-1.878-3.139,2.398-7.026,3.108-10.894,3.356-.13.008-.619.081-.619-.115,3.858-.393,8.187-1.13,11.231-3.691.323-.272,1.186-1.08,1.402-1.392.066-.095.155-.111.11-.28-3.524-.958-6.51-3.413-10.037-4.327-2.443-.633-5.298-.684-7.76-.11-.738.172-1.404.504-2.094.701-.108.031-.37.141-.341-.062,2.637-1.16,5.426-1.681,8.312-1.326,6.345.78,11.19,6.367,18,4.775l.851-.208c-2.915-1.293-6.088-1.596-9.193-2.154-.058-.01-.436-.073-.251-.196,2.916.202,5.633.644,8.413,1.536.585.188,1.395.665,1.895.787.485.119,1.158.082,1.692.208s1.007.402,1.513.59c.804-.896,1.063-2.11.96-3.285-.045-.515-.313-1.008-.278-1.51.651.99.763,2.352.471,3.486-.104.404-.751,1.451-.748,1.6.004.195.323.464.502.463.466-.003,1.666-1.293,1.936-1.714,2.18-3.407.313-8.009-3.55-9.037-.11-.029-.369-.142-.341.062,2.084,1.055,3.544,3.46,3.463,5.81l-.538-1.975c-1.078-2.575-3.677-4.307-6.45-4.503-3.677-.259-7.191,2.592-10.897,1.226.021-.295.438.001.502.001h2.348c.49,0,2.943-.755,3.476-.995.132-.06.202.053.158-.234-4.534-.749-9.06-1.761-13.693-1.34-4.729.429-10.333,2.311-12.163,7.116-6.805,1.944-8.475,10.355-7.067,16.458,1.027,4.451,3.544,7.397,6.185,10.912.386.513,1.242,2.025,1.581,2.33.23.207.533.175.793.325,1.183.683,1.9,1.922,2.733,2.964l1.712-1.976c-.17-1.651-.682-3.263-.866-4.911-.088-.793-.18-2.09-.124-2.892.145-2.071,1.501-4.082,3.667-4.379,2.033-.278,5.717,1.305,6.753,3.136.59,1.041.73,2.136,1.155,3.203ZM43.647,36.245h-4.024c-.338-2.058-1.055-4.69-3.354-5.25.245.377.505.78.621,1.221.031.116.165.567-.061.564-1.894-4.689-7.972-3.234-7.588,1.942.268,3.615,2.58,6.04,5.298,8.111,1.358,1.035,3.041,1.045,3.408-.89.205.021.123.588.101.716-.209,1.212-1.24,1.667-2.384,1.508-1.319-.183-3.44-2.656-4.54-3.507l-1.338-1.957.527,2.948-1.961,2.357.432.667,23.22,7.186c.78.112,1.484-.673,2.375-.423-.013-.161-.165-.175-.276-.226-3.242-1.5-9.56-1.993-11.62-5.145-.631-.966-1.272-3.046-1.394-4.194-.013-.123-.1-.403.097-.376.479,1.628,1.115,3.759,2.345,4.975,1.568,1.55,7.587,3.538,9.895,4.3,1.854.612,4.937,1.688,6.838,1.243,1.408-.329,2.764-2.323,2.217-3.701-.454-1.143-1.878-.478-2.905-.339-.544.074-1.226-.128-1.676.334-.404-.318.061-.749.336-1.001.205.534.638.292,1.122.337l3.243-.557c1.279-.948.269-1.553.162-2.63-.27-2.723,1.854-1.703,3.183-2.853.854-.739.733-1.364.26-2.266-1.213-2.315-3.341-4.587-4.434-7.076-.997-2.273.901-2.653.848-4.646-.682-2.391-1.188-4.865-1.926-7.236-.971-3.118-1.888-5.238-5.595-5.145-2.258.264-4.42.67-6.68.135-2.858,2.407-1.963,6.986-.557,9.983-1.189,1.19-2.488,2.288-3.369,3.75-1.308,2.17-1.256,4.714-.847,7.141ZM22.965,44.96c-.651-.047-1.329-.112-1.899-.448l-.112.893,1.119-.165.892-.28ZM27.959,45.434c-.172.011-1.763.449-1.817.527-.01.358.125,1.685.399,1.849.423.171,1.994-.111,2.183-.504.254-.53-.102-1.913-.764-1.872ZM33.697,48.534c.103-.549.244-1.11.222-1.675-.296.053-.02.775-.446.669l.222-.782-.205.087-.019-.196-.222-.003-.111.336-.057-.336-.167.224-.057-.336-.167.224-.112-.334-.336.669.222-.669-.334.334-.002-.446-.221.334-.057-.447-.167.224-.057-.336-.166.223-.019-.196c-.257.158-.18-.129-.274-.137l-.215.096-.054-.207-.224.056-.11.389-.057-.447-.167.336-.057-.447-.112.226-.057-.338c-.174.188-.661-.419-.671.113l-.221-.334.228,1.782.445.056c.34.213-.378,1.786-.673.619l.335.169.222-.728-.445-.112c-.099.735-.854,1.103-1.007,1.898l.496.119.173-.229c.032.282.161.384.448.335.057-.047-.032-.685.336-.558l-.219.664,1.005.291.892-2.967c.198-.028.109.251.085.364-.179.824-.591,1.691-.776,2.468-.025.105-.154.211.076.294.449.164.148-.339.389-.334l.058.447.277-.335.336.447.223-.559-.103.662.662.233c.006-.221-.089-.4.224-.335l.111.446c.239-.622.357-1.311.561-1.936.027-.084.109-.069.111-.075-.13.69-.225,1.38-.56,2.01l.448.114.111-.336.002.448.445.11.224-.446.057.557.278-.446-.061.449.454.111.112-.338.057.448.445-.67-.11.781.445-.222c-.09.434.244.34.505.557l.166-.334.169.446.166-.222c-.097.304.841.495.895.446l1.007-3.574-.446.557.11-.671-.204.086c-.017-.205-.026-.228-.241-.196-.104.1.023.67-.336.558l.223-.669-.334.334-.054-.457-.669-.216-.394.785.206-.744-.206-.149-.728,2.571c-.261-.003.701-2.517.614-2.682l-.485-.005-.183.228-.112-.334c-.128.19.031.754-.336.669l.223-.781-.334.334-.002-.446-.221.222-.052-.322-.39-.012-.228.557.11-.669-.333.557.055-.669c-.269.466-.203,1.084-.392,1.6-.031.085-.109.069-.111.075ZM40.852,51.439c.188-.791.404-1.568.67-2.345l-.334.334-.057-.336-.167.224-.057-.336-.167.224-.224-.335-.111.447-.057-.447-.167.224c.066-.332-.134-.434-.448-.447l-.111.336-.336-.447-.223.67v-.781s-1.007,3.685-1.007,3.685l.952.334.277-.333c-.05.479.269.344.559.558l.111-.223c.032.282.161.384.448.335.084-.387.192-.906.337-1.265.035-.087.108-.07.111-.076-.114.481-.214.972-.335,1.452l.437-.01.12-.324.056.446.279-.223-.112.334,1.404.451.384-.337-.111.445c.439-.236,1.209.688,1.231.114h.109c.026.277.138.39.395.244l.055.199.223-.056.223-.387-.113.501c0,.097.24.075.28.057.239-.108.789-2.267.901-2.675.082-.296.022-.393.161-.677.057,1.22-.602,2.259-.778,3.456l.554.12.111-.336c-.092.482.111.546.56.558.081-.072-.047-.781.336-.67l-.223.781.285-.102.05.212h.222s.001-.221.001-.221l.245.372.424.075c.282-.97.508-2.554,1.007-3.352.071.573-1.014,3.33-.895,3.463l1.06.342.169-.229c-.105.481.264.297.608.448l.286-.447-.11.557c.144-.007.326.039.453-.048.131-.09.639-2.197.777-2.556.034-.087.108-.07.111-.076-.153.955-.439,1.893-.782,2.792.299.058.195-.063.273-.223.092-.187.179-.439.258-.642.194-.497.747-2.013.792-2.459.019-.181-.008-.313-.204-.362-.024.325-.235.648-.337.894.053-.328.107-.671.111-1.005l-.333.669.11-.669-.333.557.11-.67-.206.087-.072-.198-.279.334-.002-.446-.112.223-.168-.225-.277.224-.002-.337-.2.078-.414-.298-.056.334-.221-.334c.042.139-.085.177-.113.223-.037-.301-.162-.29-.392-.446l-.166.334-.002-.446-.167.224-.056-.224h-.223s-.056.224-.056.224c.094-.236-.402-.508-.492-.435-.051.041.072.255-.122.21l-.007-.333-.43.003c-.125.093.018.667-.347.553l.223-.669c-.425-.106-.149.616-.446.669l.11-.781c-.071-.036-.206.189-.223.223-.005-.111.006-.224,0-.335l-.445-.112c-.034.257-.055.666-.335.782l.221-.782-.333.334.111-.445-.334.222-.059-.337-.342.107-.048-.214-.222-.003-.111.336-.002-.448-.445-.11-.559,1.787c-.156-.311.522-1.699.446-1.786-.215-.247-.188.287-.334.222-.024-.101.068-.325-.06-.305-.347.053.014-.177-.388-.142l-.111.336-.002-.446-.221.222-.112-.334-.112.334-.226-.444-.225.074-.109.259-.002-.446-.221.222-.223-.334c-.254.687-.415,1.484-.673,2.158-.033.087-.108.07-.111.076ZM26.656,49.315c.407.129,1.042.678,1.45.281-.004-.115-.709-.333-.863-.364-.12-.024-.59-.133-.587.083ZM25.76,49.541c-.823.122-1.932.07-2.715.246-.722.162-1.306,1.482-1.317,2.156-.007.444.231,1.48.79,1.395-.529-1.26,1.161-2.73,1.957-1.342.735-.659,1.174-1.463,1.285-2.455ZM21.176,50.547l-.558-.113.224.333-.281.004-.11-.226-.391.392.28.056.055.221c-.678-.14-.606.259-.902.583-.294.322-.692.511-.887.926l.224.111c-.595.001-.166.353-.225.39-.284.18-.152-.268-.334-.222l.111.557-.448.057.336.166-.558.002.334.167-.447.39.447.112-.67.002.558.221-.67.002.334.221-.557.114.446.221-.448.057.336.166-.448.057c.151.235.541-.118.449.279l-.447.111.446.112-.558.002.446.112-.448.166.448.278-.558-.11v.446s3.017.223,3.017.223l-.446-.333.558-.002-.336-.166.336-.062v-.441s-.669-.111-.669-.111l.67-.002-.446-.221.558-.002v-.109s-.558-.112-.558-.112l.558-.056c-.297-.267-.548-.513-.57-.938l-1.217-.123,1.117-.002-.112-.894-.21.096-.123-.206-.224.334.112-.671c.056-.048.294.083.393.068.132-.02,1.614-1.734,1.775-1.978.135-.205.339-.383.289-.657ZM32.916,51.214l15.838,8.475c.383.035,1.753-2.511,2.045-2.944l-17.883-5.531ZM22.743,53.338c.194.131,1.825-1.169,1.293-1.573-.786-.597-1.831.772-1.293,1.573ZM22.742,53.898c-1.181.073-1.587-1.004-1.62-2.012-.811.878-2.099,2.201-.616,3.128.002-.536-.13-1.35.482-1.596.152-.061.498-.089.524.142l-.727.223-.054,1.118,2.011-1.004ZM24.419,52.893c-.29-.074-.196.099-.291.208-.303.351-.613.886-.945,1.181-.684.608-1.779.963-2.621,1.291l-.502,3.239,1.063-1.003c.691-1.043,1.872-1.907,2.56-2.916.427-.626.409-1.325.736-2ZM51.471,64.734l.09-3.831-1.598-1.529-.51.717.735.732,1.283,3.911Z"/><path d="M18.271,60.713l-.224.332.309.161-.087.438c-.745.27-.629-.871.003-.931Z"/><path d="M23.859,48.087c-.168.017-.194-.285-.212-.4-.077-.49-.086-1.106-.121-1.61.153-.027.169.199.193.308.114.526.146,1.162.14,1.702Z"/><path d="M23.077,46.3c-.063.524.041,1.007.105,1.518.028.221-.026.162-.215.157.074-.509-.181-1.002-.113-1.509.02-.152.083-.351.224-.166Z"/><path d="M58.178,14.458l-.256-1.586c-.335-1.364-1.255-2.538-2.463-3.236-4.116-2.38-7.593,1.019-11.702.075-.124-.028-.361,0-.333-.167,3.535.642,6.662-1.757,10.198-1.088,2.815.532,5.098,3.055,4.557,6.002Z"/><path d="M24.307,12.226l-1.512,1.225c-.841.823-1.545,1.774-2.123,2.794l-1.058,2.348c.176-1.342.801-2.733,1.585-3.833.735-1.031,1.863-2.205,3.109-2.533Z"/><path d="M30.12,5.969c-.526.484-1.209.753-1.779,1.182-.833.626-1.509,1.411-2.069,2.289l-.958,1.778c.277-2.423,2.547-4.559,4.806-5.249Z"/><path d="M21.736,25.017c.17-1.678,1.326-4.114,2.456-5.366.044-.049.276-.345.339-.22-1.122,1.559-2.012,3.283-2.425,5.173l-.371,2.255c.043-.595-.059-1.258,0-1.843Z"/><path d="M30.79,21.722l-2.896,1.405-2.692,2.056c1.355-1.765,3.365-3.085,5.589-3.461Z"/><path d="M43.647,19.934c-1.402,1.12-3.374,1.7-5.142,1.897l2.263-.697,2.879-1.2Z"/><path d="M34.816,36.245l.221-1.564c-1.233.527-2.639,1.619-1.943,3.116.537,1.157,1.658.703,2.608,1.304.3.19.414.616.901.495-.045-.837-.938-.989-1.009-1.957-.021-.295.217-1.815.616-1.728.451.536-.114,1.293.081,1.932.166.544,1.099.812.961,1.779-.218,1.531-1.633-.092-2.1-.306-.929-.425-1.463.022-2.218-1.024-.845-1.17-.571-2.489.486-3.386.808-.686,2.151-.752,1.378-2.052-.596-1.002-.622.229-1.212.486-.038-.5.234-.928.549-1.285-1.366-1.194-3.214-.165-3.518,1.503-.437,2.402.598,4.637,2.297,6.261-.21.049-.266-.116-.392-.222-1.878-1.581-3.11-4.921-1.976-7.226.921-1.873,3.6-1.847,4.649-.138.755,1.23.684,3.006-.38,4.012Z"/><path d="M61.742,27.992c.153.728-.438,1.756-1.189,1.864-.761.109-2.353-.724-3.241-.843-2.182-.294-3.96.658-5.951,1.311l.729-.778c1.006-.838,2.861-2.032,4.162-2.209,1.754-.238,3.753.397,5.49.656Z"/><path d="M59.52,30.771c-.167.648-.952.926-1.563.894l-.343,1.721.454.4-1.788-.502.336-.056-.225-1.229-1.676.448.335.445c-.592-.175-.94-.272-1.564-.112,1.201-1.009,2.872-1.456,4.359-1.9-.108-.308-.453-.231-.699-.197-1.111.157-2.26.97-3.325,1.314.552-.642,3.24-1.901,3.966-1.792.384.058.296.558.579.657.36.126.796-.074,1.156-.093ZM57.061,31.888c-.605,0-.382,1.347.167,1.228.38-.272-.127-.244-.169-.413-.045-.182.053-.757.002-.815Z"/><path d="M61.868,42.165c.163-.738,2.452-1.005,2.571-.5.1.428-1.136.25-1.396.279-.399.045-.765.241-1.175.221Z"/><path d="M61.086,42.391c.01.202.053.234-.169.225-1.009-.041-1.392-1.531-.781-2.237.094.264-.077.523-.061.833.027.528.458,1.15,1.011,1.179Z"/><path d="M18.941,55.238l-.335.446.305.06-.052.145.194.074c-.196.198-.342.452-.67.391l.335-.223c.092-.289-.283-.28-.328-.347-.041-.06.232-.737.551-.546Z"/><path d="M47.559,52.89l-.446.169.401.162-.081.438-.545.014c-.06-.407.178-1.464.671-.783Z"/><path d="M50.801,53.896l-.448.057.332.236c.217.698-1.153.777-.432-.504l.549.211Z"/><path d="M45.77,52.445l-.334-.056.321.464-.16.255-.721-.105c-.077-.456.436-.062.671-.112.107-.317-.28-.221-.331-.393-.127-.428.556-.592.555-.053Z"/><path d="M39.622,50.323l-.113.893-.558-.224c-.119-.129.544-.79.671-.668Z"/><path d="M37.443,49.653c.598-.167.487,1.091-.111,1.004-.226-.05-.061-.956.111-1.004Z"/><path d="M37.162,49.54c-.015.272.049.835-.222,1.004l-.068-.344c-.167-.034-.438.133-.379-.157l.669-.503Z"/><path d="M35.243,49.855l-.427.02c-.07-1.381,1.116-1.32.427-.02Z"/><path d="M34.815,48.758l-.111.837-.222.054c.051-.376-.491-.059-.325-.488.061-.157.558-.497.658-.403Z"/><path d="M32.346,47.987l.011.435c.267-.163.372-.473.675-.15.114.433-.289,1.211-.675.763l.333-.054-.225-.445-.4.441-.379-.277c.124-.524.181.165.446.057l-.104-.399c-.003-.031.417-.072.215-.27-.068-.067-.394.298-.333-.054l.436-.046Z"/><path d="M30.342,48.422c-.61-.059-.312-.857.057-1.115.586.407.019.628-.057,1.115Z"/><path d="M18.606,58.141l-.335.056c.236.19.412.393.324.716l-.367.111-.181-.323.445-.055c-.758-.274-.28-1.035.113-.505Z"/></svg>